<svg width="68" height="68" viewBox="0 0 68 68" fill="none" xmlns="http://www.w3.org/2000/svg">
<path d="M34.0002 5.18628C18.1122 5.18628 5.18652 18.112 5.18652 34C5.18652 49.888 18.1122 62.8137 34.0002 62.8137C49.8882 62.8137 62.814 49.888 62.814 34C62.814 18.112 49.8882 5.18628 34.0002 5.18628ZM34.0002 57.0537C21.2894 57.0537 10.9465 46.7118 10.9465 34C10.9465 21.2882 21.2889 10.9463 34.0002 10.9463C46.7116 10.9463 57.054 21.2887 57.054 34C57.054 46.7113 46.7116 57.0537 34.0002 57.0537Z" fill="white"/>
<path d="M36.8345 33.1679C36.8577 33.0206 36.88 32.8737 36.88 32.7197V20.1597C36.88 18.5695 35.5903 17.2798 34.0001 17.2798C32.41 17.2798 31.1202 18.5695 31.1202 20.1597V32.7208C31.1202 32.9659 31.0894 35.7538 31.9939 36.5646L40.9059 44.5538C41.4555 45.0471 42.1429 45.2891 42.8273 45.2891C43.617 45.2891 44.4041 44.9659 44.9732 44.3315C46.0348 43.1467 45.9357 41.3266 44.7513 40.265L36.8345 33.1679Z" fill="white"/>
</svg>
